<svg xmlns="http://www.w3.org/2000/svg" viewBox="0 0 1200 760"><defs><linearGradient id="b" x1="0" x2="1" y1="0" y2="1"><stop stop-color="#151a21"/><stop offset="1" stop-color="#080a0f"/></linearGradient><linearGradient id="a"><stop stop-color="#8a8c72"/><stop offset="1" stop-color="#f5e2b0"/></linearGradient></defs><rect width="1200" height="760" fill="url(#b)"/><path d="M0 610 310 420 570 540 830 335 1200 520V760H0Z" fill="#1f2630"/><path d="M0 645 320 472 568 578 841 388 1200 552" fill="none" stroke="url(#a)" stroke-width="10" opacity=".7"/><circle cx="920" cy="170" r="110" fill="#8a8c72" opacity=".15"/><circle cx="920" cy="170" r="70" fill="#8a8c72" opacity=".13"/><path d="M430 510c42-63 85-88 156-96l160-8c61 7 104 35 141 88l77 18v55H905c-8 49-41 78-86 78s-78-29-86-78H573c-9 49-42 78-87 78s-78-29-86-78h-67v-43Z" fill="#edf1f4" opacity=".9"/><circle cx="486" cy="568" r="43" fill="#0b0e13"/><circle cx="819" cy="568" r="43" fill="#0b0e13"/><text x="70" y="120" fill="#f7f8fa" font-family="Arial" font-size="58" font-weight="700">Every road, considered</text><text x="74" y="168" fill="#a8b0bb" font-family="Arial" font-size="24">Engineering for cities, highways and the roads between.</text></svg>